<mxfile host="app.diagrams.net" modified="2022-11-16T17:58:53.952Z" agent="5.0 (Windows NT 10.0; Win64; x64) AppleWebKit/537.36 (KHTML, like Gecko) Chrome/107.0.0.0 Safari/537.36 Edg/107.0.1418.42" etag="1AaHZ0fzwgC0teOtMbAf" version="20.5.3" type="github">
  <diagram id="C5RBs43oDa-KdzZeNtuy" name="Page-1">
    <mxGraphModel dx="1038" dy="579" grid="1" gridSize="10" guides="1" tooltips="1" connect="1" arrows="1" fold="1" page="1" pageScale="1" pageWidth="827" pageHeight="1169" math="0" shadow="0">
      <root>
        <mxCell id="WIyWlLk6GJQsqaUBKTNV-0" />
        <mxCell id="WIyWlLk6GJQsqaUBKTNV-1" parent="WIyWlLk6GJQsqaUBKTNV-0" />
        <mxCell id="UdfxYnJ2bHFR-G8xuZ-I-0" value="MCU&lt;br&gt;STM32F103C8T6" style="rounded=1;whiteSpace=wrap;html=1;fillColor=#ffe6cc;strokeColor=#d79b00;" parent="WIyWlLk6GJQsqaUBKTNV-1" vertex="1">
          <mxGeometry x="440" y="200" width="130" height="230" as="geometry" />
        </mxCell>
        <mxCell id="UdfxYnJ2bHFR-G8xuZ-I-2" value="Temperature sensor&lt;br&gt;Pt100&lt;br&gt;max31865" style="rounded=1;whiteSpace=wrap;html=1;fillColor=#dae8fc;strokeColor=#6c8ebf;" parent="WIyWlLk6GJQsqaUBKTNV-1" vertex="1">
          <mxGeometry x="445" y="50" width="120" height="60" as="geometry" />
        </mxCell>
        <mxCell id="UdfxYnJ2bHFR-G8xuZ-I-3" value="Mosfet&lt;br&gt;IRFP460PBF" style="rounded=1;whiteSpace=wrap;html=1;fillColor=#dae8fc;strokeColor=#6c8ebf;" parent="WIyWlLk6GJQsqaUBKTNV-1" vertex="1">
          <mxGeometry x="210" y="220" width="120" height="150" as="geometry" />
        </mxCell>
        <mxCell id="UdfxYnJ2bHFR-G8xuZ-I-4" value="Screen&lt;br&gt;Oled 1.3&quot;&lt;br&gt;Driver SH1106" style="rounded=1;whiteSpace=wrap;html=1;fillColor=#d5e8d4;strokeColor=#82b366;" parent="WIyWlLk6GJQsqaUBKTNV-1" vertex="1">
          <mxGeometry x="670" y="200" width="120" height="150" as="geometry" />
        </mxCell>
        <mxCell id="UdfxYnJ2bHFR-G8xuZ-I-5" value="&lt;p style=&quot;line-height: 120%;&quot;&gt;I2C&lt;/p&gt;" style="endArrow=classic;startArrow=classic;html=1;rounded=0;entryX=0;entryY=0.25;entryDx=0;entryDy=0;verticalAlign=bottom;" parent="WIyWlLk6GJQsqaUBKTNV-1" target="UdfxYnJ2bHFR-G8xuZ-I-4" edge="1">
          <mxGeometry width="50" height="50" relative="1" as="geometry">
            <mxPoint x="570" y="240" as="sourcePoint" />
            <mxPoint x="440" y="240" as="targetPoint" />
          </mxGeometry>
        </mxCell>
        <mxCell id="UdfxYnJ2bHFR-G8xuZ-I-6" value="GPIOs" style="endArrow=classic;html=1;rounded=0;entryX=0;entryY=0.75;entryDx=0;entryDy=0;exitX=1;exitY=0.5;exitDx=0;exitDy=0;verticalAlign=top;" parent="WIyWlLk6GJQsqaUBKTNV-1" source="UdfxYnJ2bHFR-G8xuZ-I-0" target="UdfxYnJ2bHFR-G8xuZ-I-4" edge="1">
          <mxGeometry width="50" height="50" relative="1" as="geometry">
            <mxPoint x="390" y="280" as="sourcePoint" />
            <mxPoint x="440" y="230" as="targetPoint" />
          </mxGeometry>
        </mxCell>
        <mxCell id="UsDrsijsb-a9MH57ePE2-5" value="" style="edgeStyle=orthogonalEdgeStyle;rounded=0;orthogonalLoop=1;jettySize=auto;html=1;fontSize=12;" edge="1" parent="WIyWlLk6GJQsqaUBKTNV-1" source="UdfxYnJ2bHFR-G8xuZ-I-9" target="UdfxYnJ2bHFR-G8xuZ-I-3">
          <mxGeometry relative="1" as="geometry" />
        </mxCell>
        <mxCell id="UdfxYnJ2bHFR-G8xuZ-I-9" value="Hot plate&lt;br&gt;fill up with wire copper" style="rounded=1;whiteSpace=wrap;html=1;fillColor=#fff2cc;strokeColor=#d6b656;" parent="WIyWlLk6GJQsqaUBKTNV-1" vertex="1">
          <mxGeometry x="80" y="265" width="80" height="60" as="geometry" />
        </mxCell>
        <mxCell id="UdfxYnJ2bHFR-G8xuZ-I-10" value="" style="endArrow=classic;html=1;rounded=0;entryX=1;entryY=0.5;entryDx=0;entryDy=0;exitX=0;exitY=0.5;exitDx=0;exitDy=0;" parent="WIyWlLk6GJQsqaUBKTNV-1" source="UdfxYnJ2bHFR-G8xuZ-I-3" target="UdfxYnJ2bHFR-G8xuZ-I-9" edge="1">
          <mxGeometry width="50" height="50" relative="1" as="geometry">
            <mxPoint x="320" y="250" as="sourcePoint" />
            <mxPoint x="370" y="200" as="targetPoint" />
          </mxGeometry>
        </mxCell>
        <mxCell id="UdfxYnJ2bHFR-G8xuZ-I-11" value="GPIOs" style="endArrow=classic;html=1;rounded=0;entryX=1;entryY=0.5;entryDx=0;entryDy=0;exitX=-0.02;exitY=0.427;exitDx=0;exitDy=0;verticalAlign=bottom;exitPerimeter=0;" parent="WIyWlLk6GJQsqaUBKTNV-1" source="UdfxYnJ2bHFR-G8xuZ-I-0" target="UdfxYnJ2bHFR-G8xuZ-I-3" edge="1">
          <mxGeometry width="50" height="50" relative="1" as="geometry">
            <mxPoint x="390" y="260" as="sourcePoint" />
            <mxPoint x="440" y="210" as="targetPoint" />
          </mxGeometry>
        </mxCell>
        <mxCell id="UsDrsijsb-a9MH57ePE2-1" value="Temp" style="endArrow=classic;html=1;rounded=0;exitX=0.5;exitY=0;exitDx=0;exitDy=0;entryX=0;entryY=0.5;entryDx=0;entryDy=0;verticalAlign=bottom;" edge="1" parent="WIyWlLk6GJQsqaUBKTNV-1" source="UdfxYnJ2bHFR-G8xuZ-I-9" target="UdfxYnJ2bHFR-G8xuZ-I-2">
          <mxGeometry width="50" height="50" relative="1" as="geometry">
            <mxPoint x="430" y="300" as="sourcePoint" />
            <mxPoint x="480" y="250" as="targetPoint" />
            <Array as="points">
              <mxPoint x="120" y="80" />
            </Array>
          </mxGeometry>
        </mxCell>
        <mxCell id="UsDrsijsb-a9MH57ePE2-2" value="UART1" style="endArrow=classic;startArrow=classic;html=1;rounded=0;entryX=-0.003;entryY=0.681;entryDx=0;entryDy=0;entryPerimeter=0;exitX=1.02;exitY=0.921;exitDx=0;exitDy=0;exitPerimeter=0;verticalAlign=top;" edge="1" parent="WIyWlLk6GJQsqaUBKTNV-1" source="UdfxYnJ2bHFR-G8xuZ-I-3" target="UdfxYnJ2bHFR-G8xuZ-I-0">
          <mxGeometry width="50" height="50" relative="1" as="geometry">
            <mxPoint x="430" y="300" as="sourcePoint" />
            <mxPoint x="480" y="250" as="targetPoint" />
          </mxGeometry>
        </mxCell>
        <mxCell id="UsDrsijsb-a9MH57ePE2-3" value="SPI" style="endArrow=classic;startArrow=classic;html=1;rounded=0;fontSize=12;entryX=0.75;entryY=1;entryDx=0;entryDy=0;exitX=0.75;exitY=0;exitDx=0;exitDy=0;verticalAlign=top;" edge="1" parent="WIyWlLk6GJQsqaUBKTNV-1" source="UdfxYnJ2bHFR-G8xuZ-I-0" target="UdfxYnJ2bHFR-G8xuZ-I-2">
          <mxGeometry width="50" height="50" relative="1" as="geometry">
            <mxPoint x="430" y="290" as="sourcePoint" />
            <mxPoint x="480" y="240" as="targetPoint" />
          </mxGeometry>
        </mxCell>
        <mxCell id="UsDrsijsb-a9MH57ePE2-4" value="GPIOs" style="endArrow=classic;html=1;rounded=0;fontSize=12;entryX=0.5;entryY=1;entryDx=0;entryDy=0;exitX=0.5;exitY=0;exitDx=0;exitDy=0;" edge="1" parent="WIyWlLk6GJQsqaUBKTNV-1" source="UdfxYnJ2bHFR-G8xuZ-I-0" target="UdfxYnJ2bHFR-G8xuZ-I-2">
          <mxGeometry width="50" height="50" relative="1" as="geometry">
            <mxPoint x="430" y="290" as="sourcePoint" />
            <mxPoint x="480" y="240" as="targetPoint" />
          </mxGeometry>
        </mxCell>
        <mxCell id="UsDrsijsb-a9MH57ePE2-6" value="POWER" style="rounded=1;whiteSpace=wrap;html=1;fontSize=12;fillColor=#dae8fc;strokeColor=#6c8ebf;" vertex="1" parent="WIyWlLk6GJQsqaUBKTNV-1">
          <mxGeometry x="450" y="500" width="120" height="60" as="geometry" />
        </mxCell>
      </root>
    </mxGraphModel>
  </diagram>
</mxfile>
